<svg width="152" height="150" viewBox="0 0 152 150" fill="none" xmlns="http://www.w3.org/2000/svg">
<path fill-rule="evenodd" clip-rule="evenodd" d="M106.765 18.4131C94.0838 -6.07027 59.0655 -6.0702 46.3841 18.4131L4.2614 99.7373C-7.4609 122.369 8.96463 149.375 34.452 149.375H118.697C134.704 149.375 147.137 138.723 151.267 125.193H82.3723C76.5656 125.193 71.8584 120.486 71.8584 114.679C71.8584 108.872 76.5656 104.165 82.3723 104.165H95.8017L77.6282 66.9961L47.3743 123.513C44.8388 128.25 39.1568 129.677 34.6833 126.702C30.2099 123.727 28.6388 117.475 31.1744 112.738L67.1415 45.5486L63.8531 38.8231C61.5022 34.015 63.3045 27.8647 67.8786 25.0859C72.4527 22.3071 78.0665 23.9522 80.4174 28.7603L117.286 104.165H150.811C150.284 102.677 149.644 101.198 148.888 99.7372L106.765 18.4131Z" fill="#5BB381"/>
<path fill-rule="evenodd" clip-rule="evenodd" d="M105.517 16.1981L89.0114 46.3369L80.4174 28.7603C78.0665 23.9522 72.4527 22.3071 67.8786 25.0859C63.3045 27.8647 61.5022 34.015 63.8531 38.8231L67.1415 45.5486L31.1744 112.738C28.6388 117.475 30.2099 123.727 34.6833 126.702C38.1816 129.029 42.419 128.663 45.3127 126.128L32.607 149.327C8.18161 148.063 -7.17555 121.818 4.2614 99.7373L46.3841 18.4131C58.6707 -5.30815 91.9255 -6.04655 105.517 16.1981ZM74.6459 72.5673L77.6282 66.9961L77.6606 67.0626L74.6459 72.5673Z" fill="#CE375C"/>
<path fill-rule="evenodd" clip-rule="evenodd" d="M118.006 149.375H118.697C134.704 149.375 147.137 138.723 151.267 125.193H106.412L118.006 149.375ZM62.8214 34.277C62.8276 30.639 64.672 27.034 67.8786 25.0859C72.4528 22.3071 78.0666 23.9522 80.4174 28.7603L117.286 104.165H150.811C150.284 102.677 149.644 101.198 148.888 99.7372L106.765 18.4131C95.5508 -3.238 66.8685 -5.74257 51.6127 10.8992L62.8214 34.277Z" fill="#E3B34C"/>
<path fill-rule="evenodd" clip-rule="evenodd" d="M150.743 103.974L125.805 104.165H150.811C150.788 104.102 150.766 104.038 150.743 103.974ZM57.4508 104.689L79.6578 104.519C75.1668 105.716 71.8585 109.811 71.8585 114.679C71.8585 120.486 76.5657 125.193 82.3723 125.193H151.267C147.137 138.723 134.704 149.375 118.697 149.375H34.452C33.7203 149.375 32.996 149.353 32.2797 149.309L45.1861 126.236C46.046 125.511 46.7929 124.599 47.3743 123.513L57.4508 104.689Z" fill="#5BB381"/>
</svg>
